<?xml version="1.0" encoding="UTF-8" standalone="no"?>
<svg
   xmlns:dc="http://purl.org/dc/elements/1.1/"
   xmlns:cc="http://creativecommons.org/ns#"
   xmlns:rdf="http://www.w3.org/1999/02/22-rdf-syntax-ns#"
   xmlns:svg="http://www.w3.org/2000/svg"
   xmlns="http://www.w3.org/2000/svg"
   xmlns:sodipodi="http://sodipodi.sourceforge.net/DTD/sodipodi-0.dtd"
   xmlns:inkscape="http://www.inkscape.org/namespaces/inkscape"
   width="1000"
   height="600"
   viewBox="-50 -30 100 60"
   id="svg2"
   version="1.1"
   inkscape:version="0.48.5 r10040"
   sodipodi:docname="Flag_of_the_NSDAP_(1920–1945).svg">
  <metadata
     id="metadata14">
    <rdf:RDF>
      <cc:Work
         rdf:about="">
        <dc:format>image/svg+xml</dc:format>
        <dc:type
           rdf:resource="http://purl.org/dc/dcmitype/StillImage" />
        <dc:title></dc:title>
      </cc:Work>
    </rdf:RDF>
  </metadata>
  <defs
     id="defs12" />
  <sodipodi:namedview
     pagecolor="#ffffff"
     bordercolor="#666666"
     borderopacity="1"
     objecttolerance="10"
     gridtolerance="10"
     guidetolerance="10"
     inkscape:pageopacity="0"
     inkscape:pageshadow="2"
     inkscape:window-width="1641"
     inkscape:window-height="908"
     id="namedview10"
     showgrid="false"
     inkscape:zoom="0.20223254"
     inkscape:cx="499.11969"
     inkscape:cy="313.24159"
     inkscape:window-x="271"
     inkscape:window-y="69"
     inkscape:window-maximized="0"
     inkscape:current-layer="svg2" />
  <rect
     fill="#d00"
     x="-50"
     y="-30"
     width="100"
     height="60"
     id="rect4"
     style="fill:#ba0606;fill-opacity:1" />
  <circle
     fill="#fff"
     r="22.5"
     id="circle6" />
  <path
     stroke-width="6"
     stroke="#000"
     fill="none"
     d="M-12,-15V0H12V15 M-15,12H0V-12H15"
     transform="rotate(45)"
     id="path8" />
  <circle
     style="fill:#547ebd;fill-opacity:1"
     sodipodi:ry="60"
     sodipodi:rx="60"
     sodipodi:cy="60"
     sodipodi:cx="60"
     cx="60"
     cy="60"
     r="60"
     id="circle4"
     transform="matrix(0.06940559,0,0,0.06940559,-4.1643354,-4.1643354)" />
  <g
     id="g4135"
     transform="matrix(0.02578248,0,0,0.02578248,-4.2489323,-4.2493891)">
    <path
       id="path4137"
       d="m 313.15747,236.69291 -3.57874,-1.98425 c -7.61811,15.69685 -17.6811,29.97637 -29.72834,42.30708 L 258.87401,256.0748 c 10.27559,-10.59449 18.56693,-22.6063 24.66142,-35.57481 l -3.57874,-1.94881 c -6.02363,12.8622 -14.1378,24.59055 -23.91733,34.65354 l -18.99212,-18.95669 c 8.1496,-8.50394 14.63386,-18.14174 19.27559,-28.59449 l -3.54331,-1.94882 c -4.57086,10.31102 -10.87795,19.66535 -18.56693,27.70866 l -20.97637,-21.01181 c 5.81102,-6.16535 10.31102,-13.2874 13.3937,-20.97638 l -3.54331,-1.94882 c -2.94095,7.51181 -7.26378,14.31496 -12.68504,20.12599 l -19.06299,-19.06299 c 5.45669,-6.05906 8.5748,-13.64174 9.03543,-21.75591 l 26.96457,0 c -0.24803,7.29921 -1.73622,14.24409 -4.25197,20.69291 l 3.54331,1.94882 c 2.83464,-7.12204 4.42913,-14.77559 4.67716,-22.64173 l 29.69291,0 c -0.24803,13.11024 -3.18897,25.58268 -8.22047,36.92126 l 3.54331,1.94882 c 5.42126,-12.11811 8.39764,-25.26378 8.64567,-38.87008 l 26.92913,0 c -0.28346,18.46063 -4.57087,36 -11.94094,51.76772 l 3.57874,1.94881 c 7.79527,-16.61811 12.04724,-34.8307 12.3307,-53.71653 l 29.69292,0 c -0.28347,24.30709 -6.02362,47.33858 -15.98032,67.9252 l 3.57874,1.98425 c 10.73622,-22.14567 16.44095,-46.55906 16.44095,-71.8937 0,-21.54331 -4.11024,-42.41339 -11.97638,-61.79528 l -3.68504,1.55906 c 7.40551,18.28346 11.40945,37.98425 11.65748,58.25197 l -29.72835,0 c -0.24803,-16.19292 -3.437,-31.85433 -9.24803,-46.48819 l -3.6496,1.55905 c 5.63386,14.1378 8.6811,29.30315 8.92913,44.92914 l -26.92913,0 c -0.2126,-11.90551 -2.55118,-23.49213 -6.73229,-34.29922 l -3.6496,1.55906 c 4.00393,10.34646 6.20079,21.36614 6.41338,32.74016 l -29.69291,0 c -0.2126,-7.26378 -1.59449,-14.3504 -4.03937,-20.97638 l -3.64961,1.55905 c 2.23229,6.16536 3.50788,12.68504 3.72048,19.41733 l -26.96457,0 c -0.46063,-8.11418 -3.57874,-15.73229 -9,-21.75591 L 210.437,121.99606 c 5.88189,6.23622 10.31103,13.53543 13.1811,21.40157 l 3.64961,-1.55905 c -3.04724,-8.36221 -7.79527,-16.05118 -14.03149,-22.67717 l 21.01181,-21.011806 c 8.96456,9.354326 15.80314,20.196846 20.33858,31.925196 l 3.6496,-1.55906 C 253.48818,116.32677 246.36614,105.05905 237.04724,95.350391 L 256.0748,76.322833 c 11.79921,12.153543 20.83464,26.255907 26.8937,41.562987 l 3.6496,-1.55905 C 280.34645,100.55905 271.02755,86.031494 258.87401,73.52362 l 21.01181,-21.01181 c 14.88189,15.23622 26.32677,32.881889 34.05118,52.05118 l 3.68504,-1.55906 C 309.47243,82.771651 297.21259,64.16929 281.33858,48.259841 265.35826,32.31496 246.68503,20.055118 226.38188,11.870078 l -1.48818,3.720473 c 19.24015,7.759842 36.95669,19.240157 52.19291,34.122046 L 256.0748,70.724408 C 243.77952,58.783463 229.53543,49.570865 214.05118,43.299212 l -1.45276,3.685039 c 14.95276,6.059055 28.73622,15.023621 40.67716,26.574802 L 234.24803,92.586612 C 224.99999,83.692911 214.33464,76.783463 202.78346,72.035431 l -1.45276,3.720473 c 11.05512,4.5 21.25985,11.125984 30.11811,19.62992 L 210.437,116.39763 c -5.91732,-5.56299 -12.68504,-9.95669 -19.98425,-13.00393 L 189,107.11417 c 6.80314,2.83465 13.11023,6.90945 18.60236,12.08268 l -19.06299,19.06299 c -6.05906,-5.42126 -13.64174,-8.5748 -21.75591,-9 l 0,-26.96457 c 7.75984,0.24803 15.23622,1.87796 22.21654,4.8189 l 1.45275,-3.72047 c -7.40551,-3.08268 -15.41338,-4.818899 -23.66929,-5.066931 l 0,-29.728346 c 12.04724,0.248032 23.70472,2.692914 34.54724,7.157481 l 1.45276,-3.720473 c -11.30315,-4.606299 -23.45669,-7.15748 -36,-7.405511 l 0,-26.8937 c 15.94488,0.212598 31.42913,3.401574 45.81496,9.248031 l 1.45276,-3.685039 C 199.20472,37.27559 183.25984,33.980314 166.78346,33.767716 l 0,-29.728346 c 20.23228,0.2480315 39.8622,4.2165353 58.11024,11.586614 l 1.48818,-3.720472 C 207.07086,4.1102361 186.23622,0 164.79921,0 138.29527,0 113.27952,6.3425195 91.06299,17.503937 l 1.807086,3.47244 C 114.37795,10.204724 138.11811,4.3228345 162.81496,4.03937 l 0,29.728346 c -20.12599,0.283464 -39.15355,5.173228 -56.12599,13.606299 l 1.80709,3.437007 c 16.72441,-8.255905 35.18504,-12.791338 54.3189,-13.074802 l 0,26.8937 c -14.95276,0.283464 -29.12599,3.897637 -41.81103,10.098425 l 1.80709,3.437007 c 12.36614,-5.988188 25.93701,-9.283464 40.00394,-9.566929 l 0,29.728346 c -9.35433,0.283465 -18.17717,2.480311 -26.18504,6.236221 l 1.80708,3.47244 c 7.58268,-3.50787 15.83859,-5.49213 24.37796,-5.74016 l 0,26.96457 c -4.18111,0.2126 -8.18504,1.16929 -11.83465,2.72835 l 1.80709,3.47244 c 3.7559,-1.52363 7.83071,-2.33859 12.01181,-2.33859 8.4685,0 16.44094,3.29528 22.42913,9.28347 5.98819,5.98819 9.28347,13.92519 9.28347,22.3937 0,17.50394 -14.2441,31.7126 -31.7126,31.7126 -8.46851,0 -16.44095,-3.29528 -22.42913,-9.28347 -5.98819,-5.98819 -9.28347,-13.96063 -9.28347,-22.42913 0,-8.46851 3.29528,-16.40551 9.28347,-22.3937 3.04724,-3.04725 6.59055,-5.3504 10.41732,-6.94488 l -1.80709,-3.47244 c -3.6496,1.52362 -7.01575,3.68503 -9.92126,6.27165 l -19.06299,-19.06299 c 4.9252,-4.64173 10.45276,-8.36221 16.44094,-11.16142 l -1.80708,-3.47244 c -6.44882,3.01181 -12.33071,7.01575 -17.43307,11.83464 L 98.185037,95.385824 C 105.55512,88.29921 113.84645,82.52362 122.81102,78.165352 l -1.80709,-3.47244 c -9.46063,4.641732 -18.10629,10.700787 -25.618106,17.8937 L 76.322833,73.559053 c 9.637795,-9.35433 20.480314,-16.97244 32.173227,-22.748031 l -1.80709,-3.437007 C 94.464565,53.43307 83.267714,61.334644 73.559053,70.759841 L 52.51181,49.712597 C 64.594487,37.948818 78.200785,28.311023 92.870076,20.976377 L 91.06299,17.503937 C 58.996062,33.625983 32.846456,59.881888 16.937007,92.125982 l 3.472441,1.84252 C 27.81496,78.874014 37.62992,64.913384 49.712597,52.51181 L 70.759841,73.594486 C 60.980313,83.692911 52.795274,95.350391 46.62992,108.14173 l 3.437008,1.84252 C 55.948818,97.724407 63.814959,86.385825 73.52362,76.358266 L 92.586612,95.421257 C 84.897636,103.3937 78.555116,112.67716 73.842518,122.84645 l 3.437008,1.84252 c 4.429133,-9.67322 10.488188,-18.60236 18.070865,-26.503933 l 21.047239,21.047243 c -5.38582,5.70472 -9.74409,12.33071 -12.8622,19.66535 l 3.47244,1.87796 c 2.87008,-6.87402 6.94488,-13.21654 12.15354,-18.77953 l 19.09843,19.06299 c -5.2441,5.88189 -8.5748,13.42914 -9.03543,21.75591 l -26.96457,0 c 0.24803,-7.68898 1.87795,-15.12992 4.74803,-22.03937 l -3.47244,-1.87796 c -3.15354,7.37008 -4.996062,15.44882 -5.244094,23.91733 l -29.692913,0 c 0.248032,-13.35827 3.259843,-26.29134 8.681103,-38.12599 l -3.437008,-1.84252 c -5.669291,12.18898 -8.964567,25.72441 -9.212598,39.96851 l -26.929134,0 c 0.283465,-18.56693 4.535433,-36.49607 12.366142,-52.83071 l -3.437008,-1.84252 c -8.007874,16.58268 -12.614173,35.11417 -12.897637,54.67323 l -29.7283461,0 C 4.3228345,138.5433 9.9921257,115.15748 20.409448,93.968502 l -3.472441,-1.84252 C 6.1299211,114.05905 0,138.72047 0,164.79921 c 0,15.98031 2.2677165,31.57086 6.6259841,46.45275 l 3.8976379,-0.95669 C 6.4488187,196.33464 4.1811023,181.73622 4.0039369,166.78346 l 29.7283461,0 c 0.177165,12.47244 2.090551,24.62598 5.633858,36.24803 l 3.826771,-0.99212 c -3.437007,-11.26772 -5.31496,-23.1378 -5.492126,-35.25591 l 26.893701,0 c 0.212598,9.88583 1.842519,19.52362 4.783464,28.66535 l 3.862205,-0.95669 c -2.870079,-8.85827 -4.464567,-18.14173 -4.641733,-27.70866 l 29.692913,0 c 0.212599,7.08661 1.523622,13.9252 3.826774,20.44488 l 3.8622,-0.99212 c -2.23228,-6.16536 -3.50787,-12.72048 -3.72047,-19.45276 l 26.96457,0 c 0.46063,8.14961 3.57874,15.73228 9,21.79134 l -19.063,19.06299 c -5.84645,-6.27165 -10.31102,-13.53543 -13.1811,-21.40157 l -3.8622,0.99212 c 3.04724,8.53937 7.86614,16.44095 14.24409,23.20866 L 95.350391,231.44881 C 85.145667,220.81889 77.669289,208.20472 73.240156,194.49212 l -3.862205,0.99213 c 4.606299,14.38582 12.437008,27.60236 23.173228,38.76378 L 73.52362,253.27558 C 59.314959,238.60629 49.039369,221.10236 43.228345,202.0748 l -3.862204,0.95669 c 5.988189,19.73622 16.61811,37.87795 31.358267,53.07874 L 49.712597,277.12204 C 31.110235,258.05905 17.822834,235.16929 10.523622,210.29527 l -3.8976379,0.95669 c 7.6889759,26.22048 21.7913379,50.2441 41.6692899,70.08662 13.429134,13.46456 28.771653,24.27165 45.460629,32.24409 l 1.948819,-3.50787 C 79.937006,302.56298 65.374014,292.46456 52.51181,279.92125 l 21.01181,-21.01181 c 10.913386,10.59449 23.385826,19.06299 36.85039,25.19292 l 1.94882,-3.47245 C 99.177163,274.67716 86.988187,266.42125 76.358266,256.11023 l 19.027558,-19.02756 c 8.893696,8.5748 19.133856,15.30709 30.224406,20.01969 l 1.94882,-3.47245 C 116.7874,249.09448 106.83071,242.61023 98.185037,234.28346 l 21.011813,-21.01181 c 6.76771,6.34252 14.59842,11.16142 23.13779,14.20866 l 1.98425,-3.50787 c -8.22047,-2.87008 -15.80315,-7.40552 -22.32283,-13.5 l 19.06299,-19.063 c 6.05906,5.42126 13.64173,8.53937 21.75591,9 l 0,26.96457 c -6.37796,-0.2126 -12.61418,-1.38189 -18.49607,-3.40157 l -1.98425,3.50787 c 6.51969,2.33858 13.3937,3.64961 20.48032,3.8622 l 0,29.69292 c -12.29528,-0.2126 -24.20079,-2.76378 -35.22047,-7.40552 l -1.98426,3.47245 c 11.65748,4.96063 24.23622,7.65354 37.20473,7.937 l 0,26.8937 c -17.68111,-0.28346 -34.79528,-4.1811 -50.49213,-11.26771 l -1.94882,3.47244 c 16.29922,7.44094 34.05118,11.48031 52.44095,11.76378 l 0,29.72834 c -23.59843,-0.28346 -46.34646,-5.63385 -67.110238,-15.51968 l -1.948819,3.50787 c 21.897637,10.48819 46.062987,16.01575 71.078737,16.01575 26.22047,0 51.48425,-6.12992 74.23228,-17.64567 l -1.87795,-3.6496 c -21.18898,10.77165 -45.1063,16.97244 -70.40551,17.29133 l 0,-29.72834 c 20.09055,-0.28347 39.40157,-5.10236 56.83464,-13.88977 l -1.84251,-3.57874 c -16.58268,8.36221 -35.22048,13.18111 -54.99213,13.5 l 0,-26.92913 c 15.05906,-0.28346 29.55118,-3.89764 42.66142,-10.41732 l -1.84252,-3.57874 c -12.33071,6.12992 -26.14961,9.74409 -40.8189,10.02756 l 0,-29.69292 c 9.60236,-0.28346 18.81496,-2.58661 27.2126,-6.69685 l -1.80709,-3.57874 c -7.72441,3.79134 -16.29921,6.02363 -25.40551,6.30709 l 0,-26.96457 c 8.14961,-0.46063 15.73228,-3.57874 21.79134,-9 l 19.02756,19.02756 c -4.53544,4.2874 -9.7441,7.86614 -15.41339,10.62992 l 1.80709,3.57874 c 5.95275,-2.90551 11.51575,-6.73228 16.44094,-11.37401 l 20.97638,20.97638 c -7.01575,6.73228 -15.02362,12.36614 -23.81102,16.75984 l 1.84252,3.57874 c 9,-4.5 17.3622,-10.34646 24.80315,-17.50394 l 18.99212,18.99213 c -9.24803,8.96456 -19.87795,16.51181 -31.46456,22.35826 l 1.84251,3.57874 c 11.79922,-5.91732 22.74804,-13.64173 32.4567,-23.10236 l 20.97637,20.97638 c -11.69291,11.40945 -25.12204,21.01181 -39.8622,28.45276 l 1.87795,3.6496 c 15.41339,-7.79527 29.69292,-18.03543 42.27166,-30.61417 13.21653,-13.21654 23.91732,-28.31102 31.81889,-44.64567 z"
       style="fill:#ffffff;fill-opacity:1;fill-rule:nonzero;stroke:none"
       inkscape:connector-curvature="0" />
    <path
       id="path4139"
       d="m 174.22441,126.67323 -0.99213,0.0354 0.0709,1.16929 0.99212,-0.0354 z"
       style="fill:#ffffff;fill-opacity:1;fill-rule:nonzero;stroke:none"
       inkscape:connector-curvature="0" />
    <path
       id="path4141"
       d="m 171.77952,125.07874 1.31103,0 0,0.99212 -1.31103,0 z"
       style="fill:#ffffff;fill-opacity:1;fill-rule:nonzero;stroke:none"
       inkscape:connector-curvature="0" />
    <path
       id="path4143"
       d="m 169.37007,124.72441 1.1693,0.17716 0.14173,-1.02756 -1.16929,-0.14173 z"
       style="fill:#ffffff;fill-opacity:1;fill-rule:nonzero;stroke:none"
       inkscape:connector-curvature="0" />
    <path
       id="path4145"
       d="m 168.41338,124.37008 -1.16929,-0.17717 0.14173,-0.99213 1.16929,0.17717 z"
       style="fill:#ffffff;fill-opacity:1;fill-rule:nonzero;stroke:none"
       inkscape:connector-curvature="0" />
    <path
       id="path4147"
       d="m 158.81102,123.02362 1.34646,0 0,1.02756 -1.34646,0 z"
       style="fill:#ffffff;fill-opacity:1;fill-rule:nonzero;stroke:none"
       inkscape:connector-curvature="0" />
    <path
       id="path4149"
       d="m 155.94094,125.0433 1.13386,0.17717 0.14173,-0.99213 -1.13386,-0.17716 z"
       style="fill:#ffffff;fill-opacity:1;fill-rule:nonzero;stroke:none"
       inkscape:connector-curvature="0" />
    <path
       id="path4151"
       d="m 156.04724,126.60236 -1.34646,-0.35433 0.24804,-0.99213 1.34645,0.35433 z"
       style="fill:#ffffff;fill-opacity:1;fill-rule:nonzero;stroke:none"
       inkscape:connector-curvature="0" />
    <path
       id="path4153"
       d="m 153.67322,127.84252 -0.17716,-1.02756 0.99213,-0.17717 0.17716,1.02756 z"
       style="fill:#ffffff;fill-opacity:1;fill-rule:nonzero;stroke:none"
       inkscape:connector-curvature="0" />
    <path
       id="path4155"
       d="m 23.173228,231.34251 0,2.19685 0.992126,0 -0.177166,-2.51574 -1.311023,-0.5315 0,-0.81496 -0.850394,0 0,1.66535 z"
       style="fill:#ffffff;fill-opacity:1;fill-rule:nonzero;stroke:none"
       inkscape:connector-curvature="0" />
    <path
       id="path4157"
       d="m 32.633857,238.60629 0.850394,2.33859 1.169291,0.85039 1.169292,2.55118 -0.673229,1.16929 -1.842519,-1.70079 -1.311024,-1.84252 -0.673228,-1.52362 -1.169291,-3.01181 z"
       style="fill:#ffffff;fill-opacity:1;fill-rule:nonzero;stroke:none"
       inkscape:connector-curvature="0" />
    <path
       id="path4159"
       d="m 72.212597,289.38188 0.81496,2.19685 -1.133858,0.67323 -0.673228,-0.99212 -1.665355,-0.5315 -0.177165,-1.52362 -1.311024,-2.01969 1.984252,0.35433 z"
       style="fill:#ffffff;fill-opacity:1;fill-rule:nonzero;stroke:none"
       inkscape:connector-curvature="0" />
    <path
       id="path4161"
       d="m 159.66141,137.55118 -1.84252,0 -0.31889,-3.72047 0.99212,-0.67323 0,-1.84252 -5.81102,0 -0.17717,-1.87796 0.81496,-0.49606 -1.31102,-0.49606 -0.99213,1.34646 -0.35433,1.52362 -1.66535,0.3189 0,0.85039 -1.13386,0 0,2.19685 -4.67716,3.8622 -9.28347,-0.31889 c -0.67323,1.52362 -2.33858,-0.17717 -2.33858,-0.17717 -0.35433,-0.99213 -2.65748,0 -2.65748,0 0,1.87795 -3.15354,-0.85039 -3.15354,-0.85039 l -5.84646,-4.21654 c -3.29528,-3.01181 -8.29134,0.8504 -8.4685,1.70079 0.17716,2.37401 -3.82678,0.49606 -3.82678,0.49606 0,0 -3.29527,-0.99212 -3.82677,0.35433 -0.49606,1.34646 -2.65748,0.99213 -2.65748,0.99213 l -0.3189,0.67323 -1.66535,0.35433 -0.318898,0.99212 -2.019685,0.35433 4.996063,-0.17716 c 1.34646,-0.14173 -0.49606,2.87008 -1.31102,2.69291 l -2.338586,0.17717 -0.850394,0.85039 -2.161417,0 -0.992126,1.34646 -3.153543,-0.17717 c 0,0 -1.84252,1.52362 -1.665355,2.05512 0.177166,0.49606 -0.318897,2.01969 -0.81496,2.01969 -0.496063,0 -1.488189,1.48818 -1.169291,2.01968 0.318897,0.49606 -0.992126,2.19685 -0.992126,2.19685 l -0.354331,1.66536 -0.992126,0.35433 0,4.53543 -1.984252,1.34646 0,2.05511 -3.011811,3.18898 0.354331,2.69291 -2.480315,2.69292 0.318897,2.72834 -1.488188,0.49607 -0.354331,1.16929 -0.637795,3.5433 1.629921,0.17717 c 0.850393,-0.35433 0.673228,2.19685 0,2.51575 -0.637795,0.35433 -2.480315,1.02756 -1.488189,1.70078 0.992126,0.67323 -2.65748,0.49607 -2.65748,-0.49606 0,-1.02756 -1.984252,-1.87795 -2.480315,-1.52362 -0.496063,0.3189 -1.346457,-1.52362 -1.346457,-1.52362 -1.807087,-1.84252 -7.476378,0.17716 -7.476378,0.17716 l -0.81496,2.69292 c -1.84252,0.31889 -3.011811,3.36614 -3.011811,3.36614 -1.488189,0.49606 -2.657481,2.37401 -2.161418,2.87008 C 56.409447,188.82283 55.098424,189 55.098424,189 l 0,3.72047 -0.850394,1.16929 0.177166,4.0748 c 0.992125,0 0.81496,1.84252 0.81496,1.84252 -1.629921,0.17717 -1.311023,2.37402 -1.311023,2.37402 l -3.507874,1.16929 -0.637796,0.99212 -4.322834,-0.14173 -1.169292,1.16929 -1.169291,-1.16929 -8.326771,0 -0.318898,-0.85039 -1.665354,-0.35433 -0.177166,-1.84252 -2.480314,0.17716 -0.496063,0.99213 -2.657481,0.17716 c 0.177166,1.70079 -2.65748,4.21654 -2.976378,3.54331 -0.35433,-0.67323 -2.19685,-2.51575 -1.346456,-2.87008 0.81496,-0.31889 2.976378,-0.67323 2.976378,-0.67323 l 0,-1.16929 -6.129921,-0.17716 -0.673229,1.02756 -2.480315,0.14173 0,2.69291 -1.169291,0.35433 c -0.850394,0.49607 0.141732,2.37402 0.141732,2.37402 1.169292,1.16929 -0.141732,3.01181 -0.141732,3.01181 -0.992126,1.02756 0.814961,2.87008 0.814961,2.87008 1.346456,0.35433 -0.814961,1.34646 -0.814961,1.34646 0.318898,1.70078 1.311024,2.19685 1.311024,2.19685 -0.992126,1.70078 0.673228,2.55118 0.673228,2.55118 l 0.177165,2.87008 1.169292,0.67322 0,1.84252 0.637795,1.16929 2.65748,0 -0.141732,-4.21653 c -2.338583,-2.69291 1.984252,-3.36614 2.161417,-2.33858 0.177165,0.99212 1.984252,1.48819 1.984252,1.48819 0.354331,2.55118 3.153543,4.0748 4.003937,1.52362 0.814961,-2.51575 1.488189,-0.99213 1.984252,0.17716 0.496063,1.16929 3.649606,4.03937 3.649606,4.03937 l 2.515748,0 0.318898,2.37402 c 2.834645,-0.17717 3.649606,0.17716 4.818897,4.03937 1.169291,3.89764 4.322835,4.88976 4.322835,4.88976 l 2.338582,-0.14173 c 0,-2.01968 2.30315,0.3189 2.30315,1.34646 0,0.99212 4.5,4.88976 4.5,4.88976 l 4.5,0.99213 4.145669,3.40157 3.153543,-0.35433 1.346457,0 c 0.81496,-2.87008 4.818897,0.17717 5.137795,1.16929 0.354331,1.02756 3.011811,2.72835 3.330708,1.87795 0.318898,-0.85039 2.161418,-0.35433 2.480315,2.19685 0.354331,2.51575 1.488189,2.01969 1.488189,2.01969 l 9.496063,-0.17717 3.330709,-2.87007 8.468499,-0.17717 c 4.32284,-0.14173 1.66536,-6.05905 0.8504,-6.05905 -1.52362,-1.1693 0.49606,-6.05906 0.49606,-6.05906 L 92.657478,229.00393 c -2.834646,0 -0.318898,-4.0748 -0.318898,-4.0748 2.161418,-1.34646 -0.496063,-3.54331 -0.496063,-3.54331 0.318898,-2.01968 -1.169291,-4.3937 -1.169291,-4.3937 -3.011811,-2.01968 -2.161417,-5.88189 -2.161417,-5.88189 l 0,-2.69291 c -2.515748,-2.37402 0.992126,-2.72835 0.992126,-2.72835 1.169291,-2.01968 -0.850394,-3.54331 -0.850394,-3.54331 l -0.141732,-2.16141 -2.65748,-0.35433 -0.354331,-7.93701 -5.988189,-8.61024 c -1.133858,-0.3189 -0.318898,-2.33858 -0.318898,-2.33858 1.488189,-0.85039 -0.318897,-2.87008 -0.318897,-2.87008 l -0.177166,-3.72047 3.472441,-0.35433 0.850394,-1.34646 1.665354,0 -0.177165,-4.35827 c 0.850394,-2.19685 2.834646,-1.02756 2.834646,-1.02756 l 2.338582,0.17717 1.311024,-2.55118 0.318897,-2.01969 -1.807086,-0.14173 c -1.984252,-1.20472 -0.992126,-5.59842 -0.992126,-5.59842 3.153543,-4.7126 6.803149,-2.01969 6.803149,-2.01969 l 2.338583,-0.14173 c 3.472439,2.33858 0.318898,6.73228 0.318898,6.73228 -0.673229,1.02756 -0.318898,4.21654 -0.318898,4.21654 l 0.81496,5.38582 -2.161417,1.87796 c -1.807086,0.99212 -1.807086,3.36614 0.177166,3.8622 1.311023,0.17717 0.81496,3.36614 -1.169292,1.20473 -2.976378,0 1.665355,2.69291 0.318898,2.01968 3.011811,1.48819 2.338583,-1.34645 2.338583,-1.34645 L 101.97638,175.5 c 1.48818,-1.1693 4.14566,2.55118 4.14566,3.04724 0,0.49606 6.66142,0.17717 6.66142,0.17717 1.80709,1.16929 2.48032,4.21653 2.48032,4.21653 1.84252,-2.37402 5.66929,-0.17717 2.83464,1.16929 2.65748,1.70079 2.65748,3.18898 2.65748,3.18898 2.16142,-0.67323 2.16142,1.02756 2.16142,1.52362 0,0.5315 0.67323,-2.51575 0.67323,-2.51575 -2.51575,-1.87795 3.29527,-2.55118 1.66535,0.8504 l -1.02756,1.52362 1.66536,1.34645 0.17716,3.86221 C 129.72047,193.57086 128.72834,189 128.72834,189 l 1.66536,-0.3189 c 0,-1.52362 1.16929,-0.70866 1.16929,-0.70866 -1.16929,-5.70473 2.65748,-6.73229 2.65748,-6.73229 2.16142,-0.49606 2.33858,-5.06693 2.33858,-5.06693 -1.52362,-0.67322 -0.67323,-3.04724 0.99213,-0.99212 1.66535,2.01968 -0.99213,-4.07481 -0.99213,-4.07481 l -1.34645,-1.16929 -1.84252,-0.17716 -0.14174,-1.84252 -3.01181,0 -0.49606,2.37401 -1.16929,0.3189 -0.3189,-0.67323 -0.49606,1.84252 -2.97638,0 -0.17717,-2.01968 1.80709,-0.49606 0.67323,-1.02756 0.49606,-2.69292 2.16142,0 2.83464,-0.85039 c 0.17717,-2.87008 1.66536,-2.16142 1.66536,-2.16142 l 0.99213,0.81496 1.48818,1.20473 0.17717,0.99212 -0.99213,0.49607 -0.17716,1.38189 0.49606,1.84252 1.34646,0 c 0.49606,-2.69292 3.9685,-2.69292 4.99606,-1.02756 l 0.99213,-2.33859 c -2.33859,-1.20472 -0.0709,-3.04724 0.60236,-2.19685 0.67323,0.8504 2.19685,-2.19685 2.19685,-2.19685 0,0 1.16929,1.52363 0,-0.49606 -1.13386,-2.05512 0.85039,-3.04724 0.85039,-3.04724 -0.31889,-2.01969 2.16142,-1.70079 2.16142,-1.70079 l 0.17717,-2.69291 -2.33859,-0.17717 c -0.49606,2.37402 -2.48031,0.35433 -1.48819,-0.14173 0.99213,-0.5315 1.98426,-1.52362 1.98426,-1.52362 l 0,-1.70079 0.99212,-0.3189 0.17717,-1.70079 2.48031,0 2.16142,-1.02756 0.49606,-0.81496 2.33858,-0.17716 3.33071,-3.04725 -0.35433,-1.34645 c -1.98425,0 0,-1.52362 0,-1.52362 l 0.35433,-2.51575 z"
       style="fill:#ffffff;fill-opacity:1;fill-rule:nonzero;stroke:none"
       inkscape:connector-curvature="0" />
    <path
       id="path4163"
       d="m 92.657478,170.96456 -2.976378,-0.35433 0.141732,1.16929 0.850394,0 c 1.311024,2.37402 0.141732,8.11418 0.141732,8.11418 0,0 -1.984252,0.17716 -2.303149,-0.8504 -0.354331,-0.99212 -1.169291,2.19685 -0.496063,2.69292 0.637795,0.53149 2.976378,0 3.153543,1.87795 0.141732,1.84252 1.488189,-1.20473 1.488189,-1.20473 l 0,-11.44488 z"
       style="fill:#ffffff;fill-opacity:1;fill-rule:nonzero;stroke:none"
       inkscape:connector-curvature="0" />
    <path
       id="path4165"
       d="m 92.33858,192.18897 0.992126,-2.33858 0.318898,-1.52362 -1.169291,-0.49607 0.177165,-2.55118 0.992126,-0.14173 0.177165,-1.20472 -2.515748,1.70078 -1.665354,-1.02756 0,4.07481 z"
       style="fill:#ffffff;fill-opacity:1;fill-rule:nonzero;stroke:none"
       inkscape:connector-curvature="0" />
    <path
       id="path4167"
       d="m 93.968502,195.90944 0,-1.66535 -1.133859,0.14173 -0.177165,1.38189 z"
       style="fill:#ffffff;fill-opacity:1;fill-rule:nonzero;stroke:none"
       inkscape:connector-curvature="0" />
    <path
       id="path4169"
       d="m 92.480313,204.02362 0,-1.20473 -1.417323,0.17717 0,1.20472 z"
       style="fill:#ffffff;fill-opacity:1;fill-rule:nonzero;stroke:none"
       inkscape:connector-curvature="0" />
    <path
       id="path4171"
       d="m 94.464565,198.81496 c 0.389763,0 0.673228,-0.3189 0.673228,-0.70867 0,-0.38976 -0.283465,-0.70866 -0.673228,-0.70866 -0.389764,0 -0.708662,0.3189 -0.708662,0.70866 0,0.38977 0.318898,0.70867 0.708662,0.70867 z"
       style="fill:#ffffff;fill-opacity:1;fill-rule:nonzero;stroke:none"
       inkscape:connector-curvature="0" />
    <path
       id="path4173"
       d="m 96.307084,201.6496 c 0,0.38977 -0.318897,0.70866 -0.708661,0.70866 -0.389764,0 -0.708662,-0.31889 -0.708662,-0.70866 0,-0.38976 0.318898,-0.70866 0.708662,-0.70866 0.389764,0 0.708661,0.3189 0.708661,0.70866 z"
       style="fill:#ffffff;fill-opacity:1;fill-rule:nonzero;stroke:none"
       inkscape:connector-curvature="0" />
    <path
       id="path4175"
       d="m 96.342517,182.37401 c 0,0.38976 -0.318897,0.7441 -0.708661,0.7441 -0.389764,0 -0.708662,-0.35434 -0.708662,-0.7441 0,-0.38976 0.318898,-0.70866 0.708662,-0.70866 0.389764,0 0.708661,0.3189 0.708661,0.70866 z"
       style="fill:#ffffff;fill-opacity:1;fill-rule:nonzero;stroke:none"
       inkscape:connector-curvature="0" />
    <path
       id="path4177"
       d="m 151.33464,162.67322 1.98425,-0.85039 0,-3.18898 -0.99212,0 -0.14173,-1.16929 -1.84252,-0.17716 -0.3189,0.85039 -0.8504,0 -0.17716,1.34646 1.02756,0 0.14173,0.99212 -0.67323,0.67323 -0.3189,0.8504 -1.31102,0.35433 -3.01181,2.87008 -0.17717,1.34645 -0.81496,1.16929 -0.99212,2.55118 -3.50788,0.14174 -0.63779,3.04724 0.46063,2.51575 3.01181,1.20472 0.3189,-1.70078 1.02756,-0.49607 0.14173,-1.70078 0.67323,-1.1693 0.99212,-1.16929 0.35433,-1.38189 1.62993,-0.99212 2.01968,-0.35433 0.81496,-0.99213 0.35433,-2.01968 0.1063,-1.52363 z"
       style="fill:#ffffff;fill-opacity:1;fill-rule:nonzero;stroke:none"
       inkscape:connector-curvature="0" />
    <path
       id="path4179"
       d="m 156.82677,168.94488 0,-2.37402 -0.35433,-2.19685 -2.48032,-1.16929 -1.84252,1.66535 -0.3189,2.37402 0,1.52362 -1.66535,0.3189 -0.3189,4.57087 -1.34645,0.49606 0.17716,1.70079 -1.84252,0.49606 -1.80708,0.49606 -0.35434,2.19685 -1.31102,0.8504 -0.67323,2.01968 -0.81496,4.88976 c 0,0 1.48819,2.87008 2.30315,1.52363 0.8504,-1.34646 2.16142,-1.52363 2.16142,-1.52363 l 0.49606,-1.16929 4.5,0.17717 c 0.3189,-1.87795 2.48032,-1.20473 2.48032,-0.35433 0,0.85039 1.66535,0.17716 1.66535,0.17716 l 1.16929,-1.84252 1.84252,0 0.14173,-2.05511 0.8504,-0.49607 0,-3.04724 c 2.65748,-0.81496 2.33858,-3.36614 2.33858,-3.36614 l 0.6378,-0.8504 -0.3189,-1.16929 c -1.34646,-0.49606 -0.67323,-1.70079 0.17716,-1.34645 0.81496,0.31889 -1.16929,-1.52363 -1.16929,-1.52363 -0.99212,0.8504 -1.84252,-0.99212 -1.84252,-0.99212 l -2.48031,0 z"
       style="fill:#ffffff;fill-opacity:1;fill-rule:nonzero;stroke:none"
       inkscape:connector-curvature="0" />
    <path
       id="path4181"
       d="m 159.48425,189.35433 c -0.17717,2.01968 -2.65748,2.69291 -2.65748,2.69291 l -1.84252,-0.5315 -0.99213,-0.81496 -0.17716,-2.37401 1.52362,-0.17717 0.3189,1.02756 3.82677,0.17717 z"
       style="fill:#ffffff;fill-opacity:1;fill-rule:nonzero;stroke:none"
       inkscape:connector-curvature="0" />
    <path
       id="path4183"
       d="m 168.44881,178.54724 c 0.35434,1.48819 0.35434,-2.37402 0.99213,-2.19685 0.67323,0.17716 0.17717,-2.33858 0.17717,-2.33858 l -2.97638,2.16141 c 1.48819,0.17717 1.66535,1.70079 1.80708,2.37402 z"
       style="fill:#ffffff;fill-opacity:1;fill-rule:nonzero;stroke:none"
       inkscape:connector-curvature="0" />
    <path
       id="path4185"
       d="m 177.27165,169.75984 c 0.67323,1.52362 0.49606,3.72047 2.97638,5.42126 0.85039,0.56693 -0.49607,1.66535 -1.31103,1.16929 -0.85039,-0.49606 -3.15354,-4.21654 -3.15354,-4.21654 l 0,-2.19685 c 0.49606,-1.34645 1.20472,-0.81496 1.48819,-0.17716 z"
       style="fill:#ffffff;fill-opacity:1;fill-rule:nonzero;stroke:none"
       inkscape:connector-curvature="0" />
    <path
       id="path4187"
       d="m 178.26378,222.41338 1.16929,-1.87795 -0.99213,-0.3189 -1.16929,0.85039 0.49606,0.49607 z"
       style="fill:#ffffff;fill-opacity:1;fill-rule:nonzero;stroke:none"
       inkscape:connector-curvature="0" />
    <path
       id="path4189"
       d="m 173.12598,218.37401 0,2.01969"
       style="fill:#ffffff;fill-opacity:1;fill-rule:nonzero;stroke:none"
       inkscape:connector-curvature="0" />
    <path
       id="path4191"
       d="m 197.1496,215.92913 1.34646,-0.8504 -0.5315,-0.85039 -1.34645,0.81496 z"
       style="fill:#ffffff;fill-opacity:1;fill-rule:nonzero;stroke:none"
       inkscape:connector-curvature="0" />
    <path
       id="path4193"
       d="m 245.26771,251.07873 1.48819,0.67323 0.17716,2.87008 c 1.98426,2.01969 8.46851,0.35433 8.46851,-0.17716 0,-0.49607 -0.3189,-6.23622 -0.3189,-6.23622 l -0.85039,-0.8504 -0.17717,-4.21653 c 0.67323,-2.19685 -3.15354,-5.38583 -3.47244,-4.7126 -0.35433,0.67323 -2.48031,0.17716 -2.48031,0.85039 0,0.67323 -1.34646,4.03937 -0.67323,5.2441 0.67323,1.16929 -0.49607,1.16929 -0.67323,2.33858 -0.17717,1.16929 -1.84252,3.22441 -1.48819,4.21653 z"
       style="fill:#ffffff;fill-opacity:1;fill-rule:nonzero;stroke:none"
       inkscape:connector-curvature="0" />
    <path
       id="path4195"
       d="m 241.58267,244.34645 c -0.28346,1.27559 -1.48819,2.01969 -2.12598,1.52362 -0.67323,-0.53149 0.81496,0.81496 1.13386,1.52362 0.35433,0.67323 1.34645,0.67323 1.66535,0 0.35433,-0.70866 0.17716,-2.19685 0.49606,-2.87007 0.35433,-0.67323 -0.99212,-0.8504 -1.16929,-0.17717 z"
       style="fill:#ffffff;fill-opacity:1;fill-rule:nonzero;stroke:none"
       inkscape:connector-curvature="0" />
    <path
       id="path4197"
       d="m 233.85826,213.37795 1.16929,0 0,3.22441 -1.16929,0 z"
       style="fill:#ffffff;fill-opacity:1;fill-rule:nonzero;stroke:none"
       inkscape:connector-curvature="0" />
    <path
       id="path4199"
       d="m 251.07873,180.92126 c -0.70866,-0.99213 3.33071,-2.72835 4.00394,-0.67323 0.6378,2.01968 0,1.66535 -0.67323,1.48819 -0.67323,-0.14174 -2.33858,0.53149 -3.33071,-0.81496 z"
       style="fill:#ffffff;fill-opacity:1;fill-rule:nonzero;stroke:none"
       inkscape:connector-curvature="0" />
    <path
       id="path4201"
       d="m 254.65747,158.31496 -0.17716,0.99212 1.84252,0.3189 0.17716,-0.99213 z"
       style="fill:#ffffff;fill-opacity:1;fill-rule:nonzero;stroke:none"
       inkscape:connector-curvature="0" />
    <path
       id="path4203"
       d="m 250.47637,159.76771 -0.46063,0.28347 -1.24016,0.70866 -1.09842,-0.70866 -0.5315,0.85039 1.34646,0.85039 0.24803,0.17717 0.24803,-0.14173 0.99213,-0.56693 0.14173,0.28346 0.92126,-0.35433 -0.35433,-0.85039 z"
       style="fill:#ffffff;fill-opacity:1;fill-rule:nonzero;stroke:none"
       inkscape:connector-curvature="0" />
    <path
       id="path4205"
       d="m 256.21653,120.15354 -2.48032,0 c 0,0 0.81496,0.35433 -1.48818,-1.84252 -2.33859,-2.19685 -3.82678,0.49606 -3.82678,0.49606 l -2.65748,0.35433 0,2.69292 -1.34645,0.49606 0.17716,1.70079 1.84252,-0.17717 c 0,0 0,2.01969 0.49606,1.20473 0.49607,-0.8504 4.64174,0.14173 4.32284,2.16141 -0.14173,0.8504 4.14567,3.04725 3.64961,5.74016 2.16141,0.35433 1.66535,2.55118 1.66535,2.55118 l 2.83465,0.3189 0.81496,-1.66535 0.81496,0.14173 0,-0.99213 -1.80709,-0.49606 -0.35433,-5.42126 -1.13386,-0.85039 0.3189,-1.34646 -1.34646,-0.49606 0.67323,-2.19685 -1.16929,-2.37402 z"
       style="fill:#ffffff;fill-opacity:1;fill-rule:nonzero;stroke:none"
       inkscape:connector-curvature="0" />
    <path
       id="path4207"
       d="m 263.55117,137.37401 -1.34645,-0.17716 -2.97638,0.53149 -1.66535,3.18898 c 0,0 0.81496,0.49606 1.48818,1.70079 0.67323,1.16929 0.99213,8.07874 -0.99212,9.28346 -1.98425,1.16929 0.17716,0.49606 0.17716,0.49606 l -0.35433,3.72048 c 0.49607,1.66535 1.34646,0.85039 1.84252,0 0.49607,-0.8504 0.99213,-1.02756 1.66536,-1.87796 0.63779,-0.85039 1.66535,-2.33858 1.80708,-3.5433 0.17717,-1.16929 0.99213,-3.01181 0.49607,-3.54331 -0.49607,-0.49606 0.49606,-2.87008 0.49606,-2.87008 0,0 0.67323,-1.34646 0,-2.69291 -0.6378,-1.34646 0.17717,-2.87008 0.67323,-3.54331 l -1.31103,-0.67323 z"
       style="fill:#ffffff;fill-opacity:1;fill-rule:nonzero;stroke:none"
       inkscape:connector-curvature="0" />
    <path
       id="path4209"
       d="m 265.53543,144.24803 0.17716,-1.34646 0.99213,0.14173 -0.17717,1.34646 z"
       style="fill:#ffffff;fill-opacity:1;fill-rule:nonzero;stroke:none"
       inkscape:connector-curvature="0" />
    <path
       id="path4211"
       d="m 265.49999,148.92519 -0.88582,-0.46063 0.49606,-0.99212 0.88583,0.42519 z"
       style="fill:#ffffff;fill-opacity:1;fill-rule:nonzero;stroke:none"
       inkscape:connector-curvature="0" />
    <path
       id="path4213"
       d="m 264.04724,135.53149 -0.67323,-1.52362 c 0,0 0,-1.34646 0.3189,-2.01968 0.35433,-0.67323 -0.6378,-1.34646 -1.13386,-1.52363 -0.5315,-0.17716 -0.35433,-1.52362 -0.5315,-2.19685 -0.14173,-0.67322 -1.31102,-1.16929 -1.31102,-1.16929 0,0 -0.3189,-2.55118 -0.3189,-3.04724 0,-0.49606 -1.52362,-1.16929 -1.02756,-1.66536 0.5315,-0.53149 0.8504,-1.20472 1.34646,-1.52362 0.49606,-0.35433 -0.49606,-2.72834 0.3189,-2.19685 0.85039,0.49606 0.85039,1.34646 1.16929,2.01969 0.35433,0.67322 -0.17717,3.04724 0.67323,3.5433 0.81496,0.49607 -0.17717,2.19685 1.16929,2.19685 1.31102,0 0.49606,3.18898 0.49606,3.18898 0,0 -0.35433,2.37402 0.49606,2.55118 0.81496,0.14173 0.3189,4.21654 0.3189,4.21654 l -1.31102,-0.8504 z"
       style="fill:#ffffff;fill-opacity:1;fill-rule:nonzero;stroke:none"
       inkscape:connector-curvature="0" />
    <path
       id="path4215"
       d="m 253.24015,108.17716 c 0.49606,0.67323 1.48819,1.20473 1.48819,1.87796 0,0.67322 -0.3189,1.16929 0.67323,1.34645 0.99212,0.17717 1.66535,-0.17716 1.98425,0.67323 0.35433,0.85039 0.35433,2.19685 0.17717,2.87008 -0.17717,0.67323 0.17716,1.66535 0.99212,1.66535 0.8504,0 0.99213,0.17717 0.99213,0.67323 0,0.5315 0.99212,-1.84252 0.99212,-1.84252 -0.81496,-0.67323 -1.48819,-2.19685 -1.48819,-2.19685 0,0 -0.81496,-2.33858 -0.81496,-2.69291 0,-0.35433 -1.16929,-0.67323 -1.66535,-0.8504 -0.49606,-0.17716 -1.34646,-1.66535 -1.34646,-1.66535 l -1.98425,0.14173 z"
       style="fill:#ffffff;fill-opacity:1;fill-rule:nonzero;stroke:none"
       inkscape:connector-curvature="0" />
    <path
       id="path4217"
       d="m 254.90551,106.68897 c -0.49607,-0.67322 -0.99213,-1.20472 -1.66536,-1.52362 -0.67323,-0.35433 -1.16929,-0.67323 -1.84252,-0.67323 -0.63779,0 -1.31102,-0.67322 -0.99212,-1.52362 0.35433,-0.85039 -0.49607,-1.16929 -0.49607,-1.84252 0,-0.67323 0.49607,-0.67323 1.34646,-0.17716 0.81496,0.49606 0.63779,0.67322 1.31102,1.52362 0.67323,0.81496 0.99213,1.66535 1.66536,1.52362 0.67323,-0.17716 1.16929,1.48819 1.84252,0.99213 0.63779,-0.49607 0.49606,1.16929 0.49606,1.16929 l -1.66535,0.53149 z"
       style="fill:#ffffff;fill-opacity:1;fill-rule:nonzero;stroke:none"
       inkscape:connector-curvature="0" />
    <path
       id="path4219"
       d="m 235.45275,125.75197 c 0.92126,0.92126 -4.99606,0.67322 -4.99606,0 0,-0.67323 0.49606,-3.04725 1.98425,-2.55119 1.52362,0.5315 1.66535,-3.01181 1.66535,-3.01181 0,0 -1.31102,0.14174 -0.14173,-0.53149 1.16929,-0.67323 0,-1.66536 -0.49606,-2.19685 -0.49606,-0.49607 -1.02756,-1.34646 -1.02756,-1.34646 l 2.33858,0 c 0.99213,-0.67323 1.34646,-3.8622 1.34646,-3.8622 1.98425,0.67322 2.97638,-0.67323 2.97638,-0.67323 0,0 0.35433,0.99212 0.99212,1.84252 0.67323,0.85039 -1.66535,1.16929 -0.81496,1.70078 0.81496,0.49607 1.16929,2.01969 0.81496,2.51575 -0.3189,0.49607 -2.16142,0.17717 -2.16142,-0.49606 0,-0.67323 -0.67322,0.85039 0,1.66535 0.67323,0.8504 -0.81496,2.05512 -1.16929,2.05512 -0.31889,0 -2.48031,0.3189 -0.63779,1.34646 1.80708,0.99212 3.82677,0.49606 3.82677,0.49606 0,0 1.48819,-0.17716 1.98425,0.67323 0.49606,0.85039 -0.17716,1.02756 -0.99212,1.02756 -0.8504,0 -4.8189,-0.35433 -4.8189,-0.35433 0,0 -1.16929,1.16929 -0.67323,1.70079 z"
       style="fill:#ffffff;fill-opacity:1;fill-rule:nonzero;stroke:none"
       inkscape:connector-curvature="0" />
    <path
       id="path4221"
       d="m 224.82283,127.27559 c 0.81496,-0.17717 2.79921,-0.35433 3.15354,0.14173 0.3189,0.5315 -1.16929,1.20472 -1.16929,1.20472 l -1.98425,0.3189 c -0.67323,-0.85039 -0.85039,-1.52362 0,-1.66535 z"
       style="fill:#ffffff;fill-opacity:1;fill-rule:nonzero;stroke:none"
       inkscape:connector-curvature="0" />
    <path
       id="path4223"
       d="m 246.25984,113.10236 c 1.31102,-0.67323 4.14567,-0.67323 4.00393,-1.70079 -0.17716,-1.02756 1.62992,-1.34645 1.62992,-1.34645 l 0.5315,2.01968 1.48819,1.02756 0.14173,1.84252 c 0,0 0.5315,-0.35433 -1.31102,0.17716 -1.84252,0.49607 -0.67323,1.34646 -0.67323,1.34646 l -3.9685,0.17717 -0.5315,-1.70079 -1.31102,-1.84252 z"
       style="fill:#ffffff;fill-opacity:1;fill-rule:nonzero;stroke:none"
       inkscape:connector-curvature="0" />
    <path
       id="path4225"
       d="m 239.77558,103.99606 c 0.99213,0 -0.31889,3.86221 2.30315,3.54331 2.69292,-0.35433 0.17717,1.16929 2.19685,1.34645 1.98426,0.14174 1.48819,-1.52362 2.12599,-2.72834 0.67323,-1.16929 0.35433,-1.84252 -0.81496,-2.16142 -1.16929,-0.35433 -1.16929,-0.35433 -1.48819,-1.70079 -0.35433,-1.34645 -1.66536,-1.70078 -1.66536,-1.70078 l -0.49606,-2.019689 -2.16142,1.346456 -2.16141,2.870083 c 0,2.19685 1.16929,1.20472 2.16141,1.20472 z"
       style="fill:#ffffff;fill-opacity:1;fill-rule:nonzero;stroke:none"
       inkscape:connector-curvature="0" />
    <path
       id="path4227"
       d="m 244.16929,118.24015 0.49606,-1.02755 0.88583,0.46063 -0.49607,1.02755 z"
       style="fill:#ffffff;fill-opacity:1;fill-rule:nonzero;stroke:none"
       inkscape:connector-curvature="0" />
    <path
       id="path4229"
       d="m 242.43306,116.64567 0.99213,0 0,1.16929 -0.99213,0 z"
       style="fill:#ffffff;fill-opacity:1;fill-rule:nonzero;stroke:none"
       inkscape:connector-curvature="0" />
    <path
       id="path4231"
       d="m 243.28346,94.145667 0.14173,1.523622 -0.99213,0.106299 -0.14173,-1.523622 z"
       style="fill:#ffffff;fill-opacity:1;fill-rule:nonzero;stroke:none"
       inkscape:connector-curvature="0" />
    <path
       id="path4233"
       d="m 240.44881,109.87795 0.99213,0 0,0.85039 -0.99213,0 z"
       style="fill:#ffffff;fill-opacity:1;fill-rule:nonzero;stroke:none"
       inkscape:connector-curvature="0" />
    <path
       id="path4235"
       d="m 237.82677,109.87795 -0.1063,-1.02756 1.66535,-0.17716 0.1063,1.02755 z"
       style="fill:#ffffff;fill-opacity:1;fill-rule:nonzero;stroke:none"
       inkscape:connector-curvature="0" />
    <path
       id="path4237"
       d="m 224.11417,126.07086 -0.92126,-0.38976 0.49606,-1.16929 0.92126,0.38976 z"
       style="fill:#ffffff;fill-opacity:1;fill-rule:nonzero;stroke:none"
       inkscape:connector-curvature="0" />
    <path
       id="path4239"
       d="m 218.90551,123.02362 -0.1063,-1.02756 1.66535,-0.14173 0.1063,0.99212 z"
       style="fill:#ffffff;fill-opacity:1;fill-rule:nonzero;stroke:none"
       inkscape:connector-curvature="0" />
    <path
       id="path4241"
       d="m 190.02755,122.70472 -3.6496,0.17717 0.0709,0.99212 3.64961,-0.17716 z"
       style="fill:#ffffff;fill-opacity:1;fill-rule:nonzero;stroke:none"
       inkscape:connector-curvature="0" />
    <path
       id="path4243"
       d="m 183.93307,124.15748 -0.3189,-1.48819 0.95669,-0.24803 0.35433,1.52362 z"
       style="fill:#ffffff;fill-opacity:1;fill-rule:nonzero;stroke:none"
       inkscape:connector-curvature="0" />
    <path
       id="path4245"
       d="m 183.25984,125.22047 -0.3189,-0.95669 0.49606,-0.17717 0.3189,0.95669 z"
       style="fill:#ffffff;fill-opacity:1;fill-rule:nonzero;stroke:none"
       inkscape:connector-curvature="0" />
    <path
       id="path4247"
       d="m 191.55118,122.38582 -0.14174,1.1693 1.80709,0.17716 c 0,0 0.85039,0.67323 0.85039,1.16929 0,0.49606 1.13386,1.02756 1.80709,1.02756 0.67323,0 2.51575,-1.38189 2.51575,-1.38189 0,0 0.81496,-2.33858 0.14173,-2.19685 -0.67323,0.17717 -1.98425,1.20473 -2.16142,0.17717 -0.14173,-0.99213 -2.16141,-0.49607 -2.16141,-0.49607 l -2.65748,0.35433 z"
       style="fill:#ffffff;fill-opacity:1;fill-rule:nonzero;stroke:none"
       inkscape:connector-curvature="0" />
    <path
       id="path4249"
       d="m 199.87795,120.50787 c 0,0.49606 -0.35433,1.16929 0.67323,1.34646 0.99212,0.17716 2.79921,-0.67323 2.97637,0.35433 0.17717,0.99212 0.17717,1.66535 1.48819,2.19685 1.34646,0.49606 2.16142,0.67323 3.15355,0.67323 0.99212,0 3.18897,-0.35433 3.18897,-0.35433 0,0 2.33859,0.35433 2.79922,0.85039 1.84251,1.84252 3.01181,2.37402 3.50787,1.52362 0.49606,-0.85039 -0.17717,-2.69291 -0.35433,-3.36614 -0.14173,-0.70866 -2.48032,-3.89764 -3.29528,-3.22441 -0.85039,0.67323 -1.02756,0 -2.51575,0.49606 -1.48818,0.5315 -4.64173,0.17717 -4.81889,-0.49606 -0.14174,-0.67323 -2.48032,-0.99212 -2.48032,-1.70079 0,-0.67322 -1.66535,-1.48819 -1.48819,-0.49606 0.14174,1.02756 -1.16929,1.52362 -1.52362,1.20473 -0.3189,-0.35434 -1.31102,0.99212 -1.31102,0.99212 z"
       style="fill:#ffffff;fill-opacity:1;fill-rule:nonzero;stroke:none"
       inkscape:connector-curvature="0" />
    <path
       id="path4251"
       d="m 238.11023,98.893698 1.16929,-3.685039 c -1.66535,-0.354331 -1.34646,-2.19685 -1.34646,-2.19685 -0.14173,-1.523622 -2.48031,-3.22441 -3.29527,-2.692914 -0.85039,0.496063 -0.5315,-3.543307 -0.5315,-3.543307 0,0 1.52363,-1.027559 2.16142,-0.531496 0.67323,0.531496 -5.63386,-8.43307 -6.98031,-7.582677 -1.31103,0.850394 -4.32284,-0.850393 -4.14567,-2.374015 0.17716,-1.488189 -5.98819,-6.555118 -5.98819,-6.555118 0,0 -1.98425,-1.346457 -2.30315,-0.354331 -0.35433,1.027559 -1.02756,1.700787 0,2.19685 0.99212,0.496063 0.81496,-0.850393 1.98425,0.354331 1.16929,1.169291 3.33071,2.692913 2.48032,3.685039 -0.81497,1.027559 -1.80709,1.38189 -1.80709,1.38189 l 1.13386,1.346457 1.84252,0 0.31889,2.870078 c 0,0 2.01969,0.992126 2.51575,2.161418 0.49607,1.204724 0.49607,1.877952 0,2.551181 -0.49606,0.673228 -1.48819,1.842519 -1.34645,3.047244 0.17716,1.169291 1.52362,1.665354 1.52362,1.665354 l 1.31102,0.177165 0.99213,0.496063 0,2.196851 c 1.34645,-0.318898 3.50787,1.523622 3.33071,2.692913 -0.17717,1.204724 0.31889,0.531496 1.98425,1.700787 1.66535,1.169292 1.16929,1.346457 2.33858,2.196848 1.16929,0.8504 2.16142,0.3189 2.65748,-1.204722 z"
       style="fill:#ffffff;fill-opacity:1;fill-rule:nonzero;stroke:none"
       inkscape:connector-curvature="0" />
    <path
       id="path4253"
       d="m 210.68503,75.968502 c -0.17716,-0.673228 -0.49606,-3.047244 0.49607,-2.870079 0.99212,0.177166 0.31889,0 1.48819,0.496063 1.16929,0.531496 1.34645,-0.81496 1.34645,-0.81496 l 1.80709,0 2.33858,1.842519 -0.3189,1.523622 -1.66535,0.141733 c -0.85039,-1.346457 -2.51575,-0.814961 -2.16142,0.35433 0.3189,1.169292 -0.85039,3.366142 -1.48819,3.543307 -0.67322,0.177166 -2.83464,0.177166 -2.69291,-0.850393 0.17717,-0.992126 0.85039,-3.366142 0.85039,-3.366142 z"
       style="fill:#ffffff;fill-opacity:1;fill-rule:nonzero;stroke:none"
       inkscape:connector-curvature="0" />
    <path
       id="path4255"
       d="m 209.33858,71.397636 0,-1.346457 c 0,0 -0.14173,-1.346456 -0.99213,-1.346456 -0.81496,0 -2.30315,-0.992126 -1.98425,-1.665355 0.3189,-0.673228 -2.83465,-1.381889 -2.83465,-1.381889 0,0 -2.83464,-2.692914 -1.80708,-2.338583 0.99212,0.318898 0.49606,-1.204724 0.49606,-1.204724 0,0 -2.01968,0.35433 -2.51575,0.177165 -0.49606,-0.177165 -0.3189,-1.665354 -0.3189,-1.665354 0,0 -1.98425,-0.531496 -1.98425,0 0,0.496063 0.6378,0.496063 0.99213,1.488189 0.3189,1.027559 0.14173,2.728346 1.66535,3.047244 1.48819,0.35433 1.80709,0.673228 1.98426,1.346456 0.17716,0.673229 1.98425,0.850394 1.98425,0.850394 l 1.34645,0.673228 3.96851,3.366142 z"
       style="fill:#ffffff;fill-opacity:1;fill-rule:nonzero;stroke:none"
       inkscape:connector-curvature="0" />
    <path
       id="path4257"
       d="m 191.40944,54.212597 -0.49606,-1.346457 -1.34646,-0.35433 0,1.523622 z"
       style="fill:#ffffff;fill-opacity:1;fill-rule:nonzero;stroke:none"
       inkscape:connector-curvature="0" />
    <path
       id="path4259"
       d="m 190.91338,47.125983 c -1.73622,-1.311024 2.30315,0.992126 2.30315,0.992126 1.34646,0 2.16142,1.027559 2.16142,1.523622 0,0.531496 1.84252,0.354331 1.84252,0.354331 l 0.17716,-1.204725 -1.34645,-1.665354 -1.1693,-0.850394 c 0,0 -1.80708,-0.177165 -1.80708,-0.673228 0,-0.496063 -1.52362,2.019685 -2.16142,1.523622 z"
       style="fill:#ffffff;fill-opacity:1;fill-rule:nonzero;stroke:none"
       inkscape:connector-curvature="0" />
    <path
       id="path4261"
       d="m 221.49212,48.118109 c -0.49606,1.488189 -0.67323,3.543307 -1.52362,3.543307 -0.81496,0 -0.49606,2.19685 -0.49606,2.19685 0,0 2.16141,0 2.83464,0.177166 0.67323,0.177165 0.67323,1.842519 0.67323,1.842519 2.48031,-0.141732 3.47244,3.22441 3.15354,4.074803 -0.31889,0.814961 0.99213,0.814961 0.99213,0.814961 0,0 0,2.728346 -0.3189,3.401575 -0.35433,0.673228 2.16142,1.169291 2.83465,2.19685 0.63779,0.992126 -0.35433,4.358268 -0.8504,4.535433 -0.49606,0.177165 1.34646,0.673228 1.16929,1.523622 -0.17716,0.850394 0.49607,0 0.67323,1.346457 0.14173,1.346456 0.49607,4.216535 0.49607,4.216535 l 2.30315,0.177165 c 0.35433,-2.19685 4.64173,-2.267716 5.35039,-2.019685 2.79921,0.992126 4.96063,5.385827 4.96063,6.413386 0,0.992126 -1.80709,1.169291 -1.80709,1.169291 l 0.3189,4.889764 c 2.83465,0.850394 5.17323,4.889764 4.8189,5.562992 -0.3189,0.673228 1.98425,0.531496 1.98425,0.531496 0.35433,-3.047244 3.18898,-2.055118 3.33071,-1.027559 0.17716,1.027559 0.67323,3.188976 0.67323,3.188976 l 0.81496,1.523622 1.16929,1.204725 1.84252,-0.177166 0.49606,0.992126 2.16142,0.35433 c 0,0 1.84252,2.01969 1.98425,2.51575 0.17716,0.5315 2.65748,0.35433 3.33071,0.5315 0.67323,0.14173 1.66535,0.67322 1.84252,1.48818 0.14173,0.8504 1.16929,2.19685 1.16929,2.19685 0,0 1.98425,0.5315 2.16142,1.20473 0.14173,0.67323 0.99212,2.19685 0.99212,2.19685 l 1.66536,1.34646 0.14173,1.52362 1.84252,0.14173 0.49606,2.01969 2.97638,-0.14174 1.66535,-1.20472 c 2.16142,-1.16929 3.68504,-2.69291 3.82678,-3.36614 0.17716,-0.67323 0.49606,-3.18898 2.16141,-2.69292 1.66536,0.49607 0.49607,-3.72047 0.49607,-3.72047 0,0 -2.30315,-1.66535 -2.16142,-2.51575 0.17716,-0.85039 -2.30315,-2.551178 -2.16142,-3.224406 0.17717,-0.673229 -2.16142,-2.019685 -1.98425,-2.692914 0.17716,-0.673228 -1.16929,-2.515748 -1.16929,-2.515748 l -2.48032,-2.374015 -0.35433,-1.523622 -1.98425,-0.177166 -3.9685,-4.889763 0.14173,-1.346457 -1.16929,-0.177165 0,-1.84252 -1.13386,-0.673228 -1.84252,-0.177166 -3.64961,-4.03937 -0.35433,-1.842519 -1.80708,0 0.31889,-3.543307 c 1.16929,-1.523622 0.49607,-4.393701 0.49607,-4.393701 0,0 -2.33859,1.169291 -3.47244,0.673228 -1.1693,-0.496063 0.49606,-1.700787 0.49606,-1.700787 l 0,-1.346457 -0.99213,-0.992126 c 0,0 -2.83464,0.318898 -3.01181,-0.177165 -0.17716,-0.496063 -0.67323,-2.692913 -0.67323,-2.692913 l -0.14173,-2.870079 -1.16929,-0.496063 -0.17717,-1.027559 -1.80708,0.177165 0,-2.019685 -1.02756,-0.35433 -0.99213,-0.496063 -0.14173,-2.019685 -3.68504,-0.177166 -1.13386,-1.700787 -1.34645,-2.019685 -4.14567,-0.318898 -0.99213,-1.027559 -1.66535,-0.35433 -1.16929,-0.496063 -0.49607,0.850393 -3.15354,0.177166 -0.17717,0.992126 c -1.66535,0.850393 -8.32677,0.177165 -8.4685,0.673228 z"
       style="fill:#ffffff;fill-opacity:1;fill-rule:nonzero;stroke:none"
       inkscape:connector-curvature="0" />
    <path
       id="path4263"
       d="m 238.92519,43.759841 c -0.24803,-1.346456 3.33071,-2.551181 4.1811,-1.523622 0.81496,0.992126 3.15355,1.169292 3.47244,6.236221 0.14174,1.807086 -2.97637,-1.84252 -2.97637,-1.84252 l -2.51575,-0.850394 c -1.31103,-0.35433 -1.98425,-1.169291 -2.16142,-2.019685 z"
       style="fill:#ffffff;fill-opacity:1;fill-rule:nonzero;stroke:none"
       inkscape:connector-curvature="0" />
    <path
       id="path4265"
       d="m 190.16929,45.814959 -0.88583,-0.425196 0.67323,-1.523622 0.88582,0.425196 z"
       style="fill:#ffffff;fill-opacity:1;fill-rule:nonzero;stroke:none"
       inkscape:connector-curvature="0" />
    <path
       id="path4267"
       d="m 181.59448,29.232283 -2.16141,-2.196851 0,-1.842519 -0.67323,-0.673229 -0.67323,-2.374015 -2.16142,-0.673229 -2.16141,0.850394 -2.30315,1.523622 -2.51575,0.318898 -1.31103,1.523622 5.31496,0.496063 0.99213,1.700787 3.82677,0.354331 2.48032,2.515748 c 2.16141,0.673228 2.65748,-0.318898 1.34645,-1.523622 z"
       style="fill:#ffffff;fill-opacity:1;fill-rule:nonzero;stroke:none"
       inkscape:connector-curvature="0" />
    <path
       id="path4269"
       d="m 181.27559,20.976377 c -0.38977,-1.488189 -2.51575,1.84252 -0.35433,2.515748 2.16141,0.673229 4.32283,0 4.32283,0 l 0.49606,-0.992126 8.32677,0.141733 c 0.67323,-0.673229 0.99213,-1.665355 0.99213,-1.665355 0,0 1.98425,-0.673228 2.83465,-0.35433 0.81496,0.35433 0.14173,-2.338583 -0.67323,-2.019685 -0.8504,0.35433 -2.48032,0.177165 -2.48032,0.177165 l -3.01181,0 c -0.17716,-1.169291 -2.83464,-0.673228 -2.97638,0 -0.17716,0.673228 -1.16929,0.850394 -1.16929,0.850394 l -3.82677,0.318897 c -0.3189,1.027559 -2.33858,1.700788 -2.48031,1.027559 z"
       style="fill:#ffffff;fill-opacity:1;fill-rule:nonzero;stroke:none"
       inkscape:connector-curvature="0" />
    <path
       id="path4271"
       d="m 164.79921,49.429133 c 2.55118,0.81496 3.47244,0.212598 3.6496,-0.46063 0.17717,-0.673229 0.35434,-0.850394 1.34646,-0.992126 0.99213,-0.177166 -0.17716,-2.196851 -1.16929,-2.055118 -0.99213,0.177165 -1.98425,-0.318898 -2.16142,-1.169292 -0.17716,-0.850393 -1.84252,-3.047244 -1.98425,-1.346456 -0.17716,1.700787 -1.16929,1.700787 -1.02756,2.870078 0.17717,1.169292 0.67323,2.940945 1.34646,3.153544 z"
       style="fill:#ffffff;fill-opacity:1;fill-rule:nonzero;stroke:none"
       inkscape:connector-curvature="0" />
    <path
       id="path4273"
       d="m 145.70078,51.342518 c -0.14173,-0.602362 3.33071,-0.673228 3.82678,-0.177165 0.49606,0.496063 0.14173,1.346457 1.66535,1.346457 1.48819,0 0.81496,1.027559 0.63779,1.523622 -0.14173,0.496063 -1.80708,0.35433 -1.98425,-0.177166 -0.17716,-0.496063 -2.65748,-0.673228 -2.65748,-0.673228 0,0 -1.34645,-0.992126 -1.48819,-1.84252 z"
       style="fill:#ffffff;fill-opacity:1;fill-rule:nonzero;stroke:none"
       inkscape:connector-curvature="0" />
    <path
       id="path4275"
       d="m 200.51574,17.291338 0.3189,0.318898 0.35433,-0.283465 1.66536,-1.346456 -0.6378,-0.814961 -1.31102,1.062992 -0.8504,-0.850394 -0.70866,0.708662 z"
       style="fill:#ffffff;fill-opacity:1;fill-rule:nonzero;stroke:none"
       inkscape:connector-curvature="0" />
    <path
       id="path4277"
       d="m 193.0748,13.287401 0.24803,-0.141732 1.84252,-1.204724 -0.5315,-0.850394 -1.55905,1.027559 -1.06299,-0.673228 -0.5315,0.850393 1.31102,0.850394 z"
       style="fill:#ffffff;fill-opacity:1;fill-rule:nonzero;stroke:none"
       inkscape:connector-curvature="0" />
    <path
       id="path4279"
       d="M 187.12204,47.763778 188.1496,49.3937 189,48.862204 l -1.1693,-1.84252 -0.14173,-0.212599 -0.24803,-0.03543 -1.62992,-0.141732 -0.1063,0.992126 z"
       style="fill:#ffffff;fill-opacity:1;fill-rule:nonzero;stroke:none"
       inkscape:connector-curvature="0" />
    <path
       id="path4281"
       d="m 132.73228,93.862202 0.14173,1.84252 2.51575,0 c 0.99213,0 -0.85039,-1.169291 -0.85039,-1.169291 0,0 -1.98426,0.141732 -1.80709,-0.673229 z"
       style="fill:#ffffff;fill-opacity:1;fill-rule:nonzero;stroke:none"
       inkscape:connector-curvature="0" />
    <path
       id="path4283"
       d="m 135.88582,93.897635 0.6378,-0.779527 0.99212,0.850394 -0.63779,0.779527 z"
       style="fill:#ffffff;fill-opacity:1;fill-rule:nonzero;stroke:none"
       inkscape:connector-curvature="0" />
    <path
       id="path4285"
       d="m 105.59055,62.32677 0.70866,-0.708661 0.99213,1.027559 -0.70867,0.708661 z"
       style="fill:#ffffff;fill-opacity:1;fill-rule:nonzero;stroke:none"
       inkscape:connector-curvature="0" />
    <path
       id="path4287"
       d="m 152.4685,280.41732 0.70866,0.70866 0.8504,-0.81496 0.49606,-0.49607 -0.6378,-0.31889 -1.66535,-0.8504 -0.4252,0.88583 1.02756,0.5315 z"
       style="fill:#ffffff;fill-opacity:1;fill-rule:nonzero;stroke:none"
       inkscape:connector-curvature="0" />
    <path
       id="path4289"
       d="m 139.3937,268.19291 1.16929,0.85039 0.60236,-0.81496 -0.63779,-0.46063 0.49606,-0.4252 -0.6378,-0.77952 -0.99212,0.85039 -0.49607,0.38976 z"
       style="fill:#ffffff;fill-opacity:1;fill-rule:nonzero;stroke:none"
       inkscape:connector-curvature="0" />
    <path
       id="path4291"
       d="m 264.61417,235.34645 c -0.2126,-0.88583 -1.16929,-1.24016 -1.27559,-1.27559 l -0.3189,0.95669 0,0 c 0.0709,0.0354 0.17716,0.1063 0.3189,0.17717 l 0.17716,0.88583 c -0.0709,0.10629 -0.14173,0.21259 -0.2126,0.28346 l 0.7441,0.67323 c 0.53149,-0.60236 0.70866,-1.16929 0.56693,-1.70079 z"
       style="fill:#ffffff;fill-opacity:1;fill-rule:nonzero;stroke:none"
       inkscape:connector-curvature="0" />
    <path
       id="path4293"
       d="m 266.17322,232.15747 -1.62992,-0.14173 0.1063,-1.52362 1.62992,0.28346 z"
       style="fill:#ffffff;fill-opacity:1;fill-rule:nonzero;stroke:none"
       inkscape:connector-curvature="0" />
    <path
       id="path4295"
       d="m 304.68897,218.97637 c 0.70866,-0.42519 1.62992,-1.24015 1.48819,0.6378 -0.1063,1.91338 -0.8504,1.27559 -1.48819,1.91338 -0.6378,0.6378 -0.99213,-1.91338 0,-2.55118 z"
       style="fill:#ffffff;fill-opacity:1;fill-rule:nonzero;stroke:none"
       inkscape:connector-curvature="0" />
    <path
       id="path4297"
       d="m 313.15747,211.81889 c -0.0354,-0.0354 -0.0354,-0.14173 -0.0354,-0.2126 -0.0354,-0.28346 -0.0709,-0.67322 -0.24803,-1.06299 l -0.88583,0.46063 c 0.1063,0.2126 0.1063,0.46063 0.14173,0.67323 0.0354,0.3189 0.0354,0.6378 0.3189,0.85039 0.2126,0.14174 0.4252,0.17717 0.67323,0.14174 l -0.17717,-0.99213 c 0.0709,0 0.17717,0.0709 0.2126,0.14173 z"
       style="fill:#ffffff;fill-opacity:1;fill-rule:nonzero;stroke:none"
       inkscape:connector-curvature="0" />
    <path
       id="path4299"
       d="m 310.92519,212.66929 c 0.24803,1.02756 0.63779,2.01968 0.63779,2.05511 l 0.9567,-0.35433 c -0.0354,0 -0.38977,-0.99212 -0.6378,-1.94882 l -0.95669,0.24804 z"
       style="fill:#ffffff;fill-opacity:1;fill-rule:nonzero;stroke:none"
       inkscape:connector-curvature="0" />
    <path
       id="path4301"
       d="m 307.31102,216.63779 -0.99213,-0.1063 c -0.1063,0.81496 0.1063,1.77165 0.88583,1.94882 l 0.17716,-0.99213 c 0.0354,0 0.0354,0 0.0354,0 -0.0709,-0.0709 -0.14174,-0.46063 -0.1063,-0.85039 z"
       style="fill:#ffffff;fill-opacity:1;fill-rule:nonzero;stroke:none"
       inkscape:connector-curvature="0" />
    <path
       id="path4303"
       d="m 302.91732,196.51181 c -0.0354,-0.3189 -0.24804,-0.56693 -0.5315,-0.70867 -0.7441,-0.31889 -1.98425,0.2126 -2.58661,0.6378 l 0.53149,0.81496 c 0.6378,-0.4252 1.48819,-0.63779 1.66536,-0.5315 -0.0354,0 -0.0354,-0.0354 -0.0354,-0.0354 l 0.9567,-0.17716 z"
       style="fill:#ffffff;fill-opacity:1;fill-rule:nonzero;stroke:none"
       inkscape:connector-curvature="0" />
    <path
       id="path4305"
       d="m 256.88976,142.61811 c -0.67323,0.67323 -2.16142,0.99212 -2.16142,0.99212 l -0.49606,1.87796 -0.81496,0.67322 c 0,0 0.14173,0.49607 0,1.66536 -0.17717,1.20472 -1.66536,1.87795 -1.66536,1.87795 l -0.67323,0.85039 c 0,0 -4.00393,0.2126 -4.5,0 -1.48818,-0.67322 -0.49606,-2.72834 0.49607,-2.55118 0.99212,0.17717 -0.14174,-2.87008 -0.14174,-2.87008 l 1.31103,-0.17716 c 0,0 0.17716,-3.01181 0.67323,-3.01181 0.49606,0 -0.17717,-1.02756 -0.8504,-1.52362 -0.63779,-0.49607 -1.48819,-2.19685 -2.16141,-2.01969 -0.6378,0.14173 -3.29528,0 -3.29528,0 l -0.5315,0.99213 -1.80708,0.35433 c 0,0 0.14173,1.31102 -0.17717,1.66535 -0.99212,1.20473 -4.8189,3.72047 -3.15354,-0.49606 l 0.49606,-0.99213 0,-1.52362 -2.97638,-0.17716 c 0,0 -1.52362,-0.49607 -1.52362,-1.1693 0,-0.67322 -0.14173,-1.52362 -0.14173,-1.52362 l -3.50787,-3.89763 -4.14567,-0.49607 -0.3189,-0.85039 -2.51575,-0.3189 c -2.97638,-1.52362 -5.63386,-0.17716 -5.13779,2.33858 0.49606,2.55118 1.31102,3.54331 -0.35433,3.54331 -1.66536,0 -1.98426,-1.34646 -1.98426,-1.34646 0,0 -1.31102,-0.49606 -1.31102,0.17717 0,0.67323 -0.5315,2.01968 0,2.69291 0.49606,0.67323 -0.67323,1.70079 -1.16929,1.20473 -0.49606,-0.5315 -1.84252,-2.05512 -1.48819,-2.55118 0.3189,-0.49607 -2.33858,-3.72048 0.3189,-4.21654 2.65748,-0.49606 -0.17717,-2.01968 0.81496,-2.37402 l 1.34645,-0.67322 1.31103,0 0.85039,-0.67323 -2.16142,-0.3189 -1.34645,-0.17716 -2.48032,-0.17717 c -2.48031,1.70079 -2.97638,3.72047 -2.97638,3.72047 -1.34645,2.55118 -4.49999,-0.99212 -3.3307,-2.37401 1.16929,-1.34646 -3.64961,-0.14174 -4.5,0.53149 -0.81496,0.67323 -3.33071,0.3189 -3.33071,0.3189 -0.49607,1.52362 -2.83465,-0.14173 -2.16142,-1.16929 0.67323,-1.02756 0.67323,-1.70079 0.67323,-1.70079 l -0.81496,-0.14173 -1.02756,1.84252 c -2.30315,0 -2.97638,1.34646 -2.48032,2.19685 0.49607,0.85039 -0.67322,-0.17717 -0.99212,0.99213 -0.35433,1.20472 0.17716,1.20472 1.16929,1.70078 0.99213,0.49607 -0.49606,0.49607 0.14173,1.34646 0.67323,0.85039 2.65748,0 1.52362,1.16929 -1.16929,1.20472 -3.50787,0.67323 -3.50787,0.67323 -0.17717,1.52362 -3.33071,1.20472 -3.64961,0.70866 -0.35433,-0.5315 -2.83464,-3.57874 -2.83464,-3.57874 l -3.15354,-0.14173 c -0.3189,-2.37402 1.48818,-1.20473 2.16141,-3.04725 0.67323,-1.84252 0.99213,-4.88976 0.99213,-4.88976 0,0 -2.65748,-0.17717 -2.83465,0.67323 -0.14173,0.85039 -1.80708,1.34646 -1.80708,1.34646 0,0 -1.34646,0.49606 -0.8504,1.16929 0.49607,0.70866 -0.99212,1.02756 -0.99212,1.02756 0,0 0.24803,1.09842 -0.17717,1.52362 -1.31102,1.34645 -4.64173,0.17716 -5.13779,-0.35433 l -1.98426,-0.8504 -2.01968,-1.34645 -2.30315,1.02756 -0.67323,0.67322 -2.48031,0 -0.17717,2.01969 4.5,0.49606 0.3189,4.1811 -1.84252,-0.63779 -1.13386,0 -0.5315,-0.99213 -0.99212,-0.17716 0,3.72047 0.99212,0.85039 0.8504,0.81496 1.66535,0.17717 0.3189,2.01968 4.1811,0.17717 0.49607,0.85039 2.48031,0.17717 4.8189,4.88976 -0.3189,1.52362 -0.85039,0.49607 c 0.35433,1.16929 -2.16142,0.49606 -2.16142,0.49606 l 0,1.02756 1.16929,0.14173 1.16929,0.67323 1.66536,-2.83465 c 1.80708,-1.20472 2.65748,0.49607 2.83464,1.48819 0.14173,1.02756 -0.85039,0.8504 -0.85039,0.8504 l 0,2.37401 0.99212,0.3189 c 1.66536,2.01969 -0.67322,3.22441 -0.67322,3.22441 l -0.49607,1.66535 c -0.49606,1.52363 -2.30315,1.20473 -2.30315,1.20473 l -0.67323,0.99212 -1.98425,0.5315 3.93307,0.49606 c 0.38977,-1.34645 1.38189,-1.70078 1.87796,-1.02756 0.49606,0.67323 0.49606,1.87796 0.49606,1.87796 l 0.99213,0.14173 -0.17717,1.87795 1.02756,0.3189 0,5.42126 1.13386,1.34646 c 2.01968,-0.8504 2.01968,0.49606 0.99212,1.16929 -0.99212,0.67323 -0.31889,3.72047 -0.31889,3.72047 l -0.81497,0.85039 0,1.34646 -1.02755,0.67323 0,1.84252 c -1.62993,-0.8504 -3.64961,-0.49607 -4.14567,0 -1.48819,-0.99213 -4.64174,-0.67323 -4.64174,0.17716 0.99213,1.34646 -1.16929,1.70079 -1.16929,1.70079 l -1.16929,1.34646 c 0.8504,1.66535 -0.81496,1.84252 -0.81496,1.84252 l 0,3.22441 -2.01968,1.84252 0.17716,4.3937 c 0,1.16929 2.48032,1.34645 3.01181,0.67323 0.49607,-0.67323 2.48032,1.34645 2.48032,1.34645 l 1.48819,0 0.35433,-3.04724 -1.02756,-0.49607 0,-4.88976 1.66535,-1.87795 c 2.01969,-0.67323 1.34646,4.3937 1.34646,4.88976 0.17716,1.87795 0.99213,1.70079 1.80709,1.38189 1.66535,-0.70866 0.35433,1.84252 -0.99213,1.66536 -1.31102,-0.17717 -0.49606,1.70078 -0.49606,1.70078 l 0.85039,0.3189 -1.52362,1.20473 -1.31103,1.52362 -1.66535,-0.5315 -1.98425,-0.17716 -0.67323,-1.1693 -1.16929,-0.17716 -0.17717,2.37401 -0.81496,1.02756 -1.98425,2.01969 c 2.65748,0 -0.35433,1.84252 -1.02756,1.84252 1.52362,0.49606 -0.14173,2.01968 -3.9685,0.85039 l 0,1.16929 -1.34646,0.17717 1.16929,1.34646 1.34646,0.17716 -0.49606,2.87008 c 0,2.19685 -5.49213,0.67323 -5.98819,0.14173 l -0.17717,3.04725 -0.99212,0.17716 0.17716,2.01969 -0.17716,2.87007 1.80708,-0.31889 0,1.16929 4.5,0.17716 6.48425,-6.94488 3.82678,-0.81496 c 0.31889,-1.70079 1.98425,0.3189 1.98425,0.3189 1.66535,-0.17717 2.01968,1.02756 2.01968,1.02756 l 2.16142,0.3189 c 1.80709,0.53149 0.70866,0.70866 0.81496,1.34645 0.17717,1.02756 0.99213,0.67323 0.99213,0.67323 l 0.35433,-2.19685 0.99212,0.17717 -0.99212,-1.1693 -1.84252,-0.85039 -1.98425,-0.85039 c -1.34646,-1.84252 0.31889,-1.52362 1.66535,-1.34646 l 2.16142,0 c 0,0 2.48031,3.36614 2.48031,4.21654 0,0.85039 1.16929,1.02755 1.16929,1.02755 l 1.48819,-0.17716 0.49607,1.16929 1.48818,0 0.49607,1.02756 3.01181,0 0.17716,-1.52362 -2.83464,-0.49607 -0.17717,-1.70078 -1.98425,-0.49607 c -0.67323,-2.87007 0.49606,-3.72047 1.31102,-2.37401 l 0.99213,0.17716 -0.3189,-2.51574 1.16929,-0.35433 -0.31889,-3.54331 -1.02756,-0.3189 0,-1.20472 4.1811,0.17716 c -0.35433,-2.19685 0.14173,-3.22441 0.14173,-3.22441 l 1.16929,0 0.17717,0.8504 5.06693,0.49606 3.61417,-4.14567 c -0.17716,-0.28346 0.35433,-0.49606 -0.0354,-0.88583 -0.49606,-0.53149 -1.16929,0 -2.01969,-0.53149 -0.81496,-0.49607 0,-3.36614 -0.14173,-4.03937 -0.17716,-0.67323 2.83465,-1.66536 2.33858,-0.17717 -0.49606,1.52362 0,2.19685 0,2.19685 2.16142,-2.01968 3.96851,0.17717 3.82677,0.67323 -0.17716,0.5315 1.13386,1.02756 1.98426,0.5315 0.81496,-0.5315 1.80708,1.52362 1.48819,2.51574 -0.3189,1.02756 -3.33071,0.8504 -3.47245,-0.17716 -0.17716,-0.99213 -0.67322,-0.67323 -1.02755,-0.14173 -0.3189,0.49606 -1.80709,0.81496 -2.65748,0.31889 -0.14174,-0.10629 -0.24804,-0.17716 -0.28347,-0.28346 l -3.61417,4.14567 0.24803,0.0354 c 1.98425,1.16929 0.99213,2.69292 0.3189,3.01181 -0.6378,0.35433 -1.80709,0.35433 -1.80709,0.35433 l -0.35433,0.67323 -4.32283,0.3189 -0.3189,1.70079 c -2.16142,-0.35433 -2.97638,2.01968 -2.48032,3.18897 0.49607,1.20473 0,2.19685 0,2.19685 l 1.80709,0.8504 2.33858,-0.67323 c 0.3189,-1.70079 1.84252,-2.01969 3.15355,-3.04724 1.34645,-0.99213 3.50787,1.87795 2.83464,3.2244 -0.67323,1.34646 -0.67323,1.84252 -0.67323,1.84252 l 0.17717,1.52363 -1.66536,0.67322 -1.34645,0.67323 -0.14174,0.8504 -4.5,0 -0.81496,0.85039 -2.16141,0.17717 -0.67323,0.99212 -1.48819,0.17717 c 0,0 -2.51575,1.16929 -1.52362,2.51574 0.99212,1.34646 -4.14567,1.20473 -5.31496,-0.67322 -0.3189,1.70078 -2.16142,0.17716 -2.16142,0.17716 l -1.80709,-0.49606 -0.17716,-2.55118 c -0.35433,-1.66536 -3.50788,-1.66536 -3.33071,-0.49607 0.17716,1.1693 -5.98819,0.49607 -5.98819,0.49607 l -1.98425,0.99212 -1.84252,1.063 -0.14173,0.81496 -3.01181,0.35433 -1.31103,0.67323 -0.53149,-1.02756 -1.31103,0 -1.34645,1.87795 c -3.47245,0.14173 -6.80315,2.19685 -6.48426,3.01181 0.35433,0.85039 -1.31102,1.70079 -1.31102,1.70079 l -1.48819,0.49606 -0.99212,1.52362 -2.01969,0.67323 -0.3189,3.54331 -0.99212,0.67323 0,1.52362 -1.16929,0.35433 0,0.81496 -1.66536,0.17716 0.99213,2.55119 1.34645,0.67322 c 2.30315,0.3189 1.31103,3.18898 1.31103,3.18898 l 1.34645,0.17717 0.67323,1.84252 1.31103,2.69291 c 0.49606,2.05512 1.98425,1.52362 2.65748,1.38189 0.67322,-0.17717 1.34645,2.01968 1.34645,2.01968 l 6.62599,0.14174 c 0,0 -0.3189,0.70866 0.85039,1.02755 1.16929,0.3189 8.7874,0.67323 9.14173,0.17717 -0.35433,-1.52362 4.14567,-1.87795 5.98819,-0.49606 1.80709,1.34645 4.32284,0.49606 4.32284,0.49606 l 2.48031,3.01181 1.66536,3.72047 2.83464,0.8504 1.98425,0.49606 0.67323,2.87008 1.48819,0.17716 0.49606,1.84252 c 1.84252,1.38189 -0.49606,4.21654 -0.49606,4.21654 l 0,3.72047 1.34646,0.67323 -0.17717,1.34646 2.16142,2.19685 2.48031,0.17716 6.30709,6.73229 4.99606,1.52362 0.8504,2.69291 1.31102,-0.14173 0.99213,-0.8504 4.00393,-0.17716 1.98426,-1.84252 2.16141,-0.35433 18.46063,-15.69685 -1.66535,-0.99213 0,-3.72047 c 2.97638,-2.19685 3.15354,-6.05905 0.3189,-6.41338 -2.12599,-0.24804 -1.13386,-2.51575 0.85039,-2.87008 l 1.16929,-0.49607 0,-1.52362 3.82677,-3.54331 0,-2.69291 -8.32677,-6.90945 c -3.64961,-1.34645 0,-9.46063 2.48032,-9.28346 2.51574,0.17716 -0.14174,-12.47244 -0.14174,-12.47244 l -1.34645,-0.67323 0.35433,-4.0748 -1.84252,0 -2.97638,3.89763 -0.85039,2.69292 c -0.3189,3.5433 -10.62993,2.87008 -11.12599,2.37401 -0.49606,-0.53149 -4.00394,-2.05512 -4.00394,-2.05512 0,0 -2.65748,-2.16141 -3.15354,-1.48818 -0.49606,0.67322 -2.83464,-0.8504 -2.83464,-0.35433 0,0.49606 -2.16142,-1.1693 -2.16142,-1.1693 l -3.33071,-1.20472 2.51575,-0.49606 -0.49606,-2.01969 4.32283,2.19685 c 0.49606,0.67323 2.65748,0.49606 2.65748,0.49606 l 0.67323,0.8504 c 0,0 1.31102,-0.17717 2.16142,0.85039 0.81496,0.99213 5.13779,0.17717 5.13779,0.17717 l 1.16929,0.99212 1.80709,0.67323 5.17323,0.17717 0.17716,-3.18898 0.99213,-1.02756 -0.17717,-2.01968 1.16929,-1.02756 0,-1.66536 0.99213,-0.35433 0.17717,-3.72047 0.81496,-0.14173 0,-8.11417 -2.48032,-2.37402 c -0.17716,0.85039 -2.83464,0.85039 -2.83464,0.85039 0,0 -0.67323,1.20473 -1.1693,1.20473 -0.49606,0 0.67323,1.48819 0.35433,2.51575 -0.35433,0.99212 -1.66535,0.99212 -1.66535,0.99212 l -2.51575,0.70866 -0.67323,0.81496 -2.65748,0 -0.31889,-2.19685 2.97637,-0.81496 1.66536,-0.85039 0.85039,-1.70079 c 0.17717,-1.66535 2.16142,-1.52362 2.16142,-1.52362 0,0 3.82677,-3.18898 3.9685,-4.7126 0.17717,-1.52362 1.52363,-5.74016 3.82677,-5.74016 l 4.32284,0 C 236.76377,191.19685 236.26771,189 236.26771,189 l 2.16142,-0.3189 0.35433,1.16929 c 0,0 2.97638,0.35433 3.29527,-0.17717 0.35433,-0.49606 1.02756,-1.66535 1.84252,-1.16929 0.81496,0.49607 3.50788,-1.16929 3.50788,-1.16929 0.14173,-1.20472 4.2874,-0.67323 4.2874,-0.67323 l 0.5315,-1.52362 c 0,0 -2.83465,-3.89764 -3.33071,-3.89764 -0.49607,0 -3.15355,-2.33858 -3.50788,-1.52362 -2.65748,-0.67323 -2.48031,-4.35827 -2.48031,-4.35827 l -0.99213,-2.37401 c 0,-1.34646 -2.51575,-4.21654 -3.01181,-3.89764 -2.48031,-1.84252 -0.63779,-4.03937 0,-4.21654 0.67323,-0.14173 2.33858,-2.51574 2.33858,-2.51574 l 0.81496,-2.37402 2.83465,-0.81496 0.35433,-2.19685 -1.52362,-0.17717 c 0,0 1.66535,-3.04724 2.51575,-3.04724 0.81496,0 6.30708,0 6.80315,-0.3189 0.49606,-0.35433 1.48818,-3.04724 1.48818,-3.5433 0,-0.5315 1.34646,-0.67323 1.84252,-0.8504 0.49607,-0.17716 1.66536,-1.52362 1.98426,-2.19685 0.35433,-0.67323 -0.81496,-4.88976 -1.48819,-4.21653 z"
       style="fill:#ffffff;fill-opacity:1;fill-rule:nonzero;stroke:none"
       inkscape:connector-curvature="0" />
    <path
       id="path4307"
       d="m 164.79921,203.42125 c 0.24803,-0.24803 0.49606,0.77953 0.99212,0.6378 0.49607,-0.1063 0.7441,0.88583 0.24804,0.88583 -0.49607,0 -0.49607,0.63779 -0.49607,0.88582 0,0.24804 0,0.88583 -0.35433,1.27559 -0.38976,0.38977 -0.77953,0.1063 -1.27559,-0.14173 -0.49606,-0.24803 -0.74409,-0.24803 -1.34645,-0.24803 -0.6378,0 -0.14174,1.02756 -0.14174,1.02756 0,0 -2.62204,-0.14173 -2.12598,-0.5315 0.49606,-0.35433 0.99212,-0.49606 0.63779,-0.74409 -0.38976,-0.24803 0,-0.49606 0,-1.02756 0,-0.49606 1.24016,-0.24803 0.8504,-0.60236 -0.35433,-0.38977 0.0354,-1.87796 0.63779,-1.02756 l 0.38977,-0.88583 c -0.38977,-0.38976 -0.14174,-0.49606 -0.88583,-0.74409 -0.74409,-0.28347 -0.14173,-1.77166 -0.14173,-1.77166 l 0.14173,-1.02756 c 0.24803,-1.27559 2.72835,-1.38188 2.87008,-0.24803 0.1063,1.13386 0,1.87796 0,1.87796 l 0.74409,0.28346 c 0,0 -0.1063,0.7441 -0.74409,0.7441 -0.6378,0 0,0.38976 -0.38977,0.74409 l 0.38977,0.63779 z"
       style="fill:#ffffff;fill-opacity:1;fill-rule:nonzero;stroke:none"
       inkscape:connector-curvature="0" />
    <path
       id="path4309"
       d="m 156.57874,204.69685 c 0.35433,-0.7441 1.24015,-4.03937 2.23228,-3.04725 0.99213,1.02756 1.62992,0 1.62992,0 0,0 0.49606,0.5315 0.24803,1.52362 -0.24803,1.02756 -0.49606,2.01969 -1.13386,2.16142 -0.60236,0.14173 -1.13385,0.49606 -1.87795,0.6378 -0.74409,0.1063 -1.09842,-1.27559 -1.09842,-1.27559 z"
       style="fill:#ffffff;fill-opacity:1;fill-rule:nonzero;stroke:none"
       inkscape:connector-curvature="0" />
  </g>
</svg>
